<svg width="273" height="54" viewBox="0 0 273 54" fill="none" xmlns="http://www.w3.org/2000/svg">
<path d="M59.6692 10.9303H65.8289L69.3323 34.4468L77.8505 10.9303H83.6895L91.6581 33.5309L95.3677 10.9303H101.344L95.1845 43.6748H89.4141L80.4151 17.9829L70.752 43.6748H65.0503L59.6692 10.9303ZM115.152 19.6316C122.449 19.6316 126.097 23.3564 126.097 30.806C126.097 31.7983 126.028 32.7905 125.891 33.7828H109.931C109.931 37.1717 112.419 38.8662 117.396 38.8662C119.823 38.8662 122.25 38.6372 124.677 38.1792V42.9879C122.556 43.4459 119.976 43.6748 116.938 43.6748C108.221 43.6748 103.863 39.576 103.863 31.3785C103.863 23.5472 107.626 19.6316 115.152 19.6316ZM109.931 29.5695H120.189V29.3863C120.189 26.0584 118.51 24.3945 115.152 24.3945C111.946 24.3945 110.206 26.1195 109.931 29.5695ZM136.722 10.9303V43.6748H130.654V10.9303H136.722ZM148.537 10.9303V43.6748H142.469V10.9303H148.537ZM154.285 42.3009V36.8053C157.567 38.0266 161.277 38.6372 165.414 38.6372C170.436 38.6372 172.947 36.958 172.947 33.5996C172.947 31.1571 171.405 29.9359 168.322 29.9359H163.192C156.491 29.9359 153.14 26.8828 153.14 20.7765C153.14 14.0597 157.911 10.7013 167.451 10.7013C171.115 10.7013 174.588 11.2356 177.87 12.3042V17.7998C174.588 16.5785 171.115 15.9679 167.451 15.9679C161.956 15.9679 159.208 17.5708 159.208 20.7765C159.208 23.219 160.536 24.4403 163.192 24.4403H168.322C175.451 24.4403 179.015 27.4934 179.015 33.5996C179.015 40.4691 174.481 43.9038 165.414 43.9038C161.277 43.9038 157.567 43.3695 154.285 42.3009ZM201.341 42.9879C199.356 43.4459 197.296 43.6748 195.158 43.6748C186.61 43.6748 182.335 39.515 182.335 31.1953C182.335 23.4862 186.61 19.6316 195.158 19.6316C197.296 19.6316 199.356 19.8606 201.341 20.3186V25.1272C199.356 24.6693 197.448 24.4403 195.616 24.4403C190.808 24.4403 188.403 26.6919 188.403 31.1953C188.403 36.3092 190.808 38.8662 195.616 38.8662C197.448 38.8662 199.356 38.6372 201.341 38.1792V42.9879ZM210.271 31.5616C210.271 36.584 212.218 39.0952 216.11 39.0952C220.003 39.0952 221.949 36.584 221.949 31.5616C221.949 26.6614 220.003 24.2113 216.11 24.2113C212.218 24.2113 210.271 26.6614 210.271 31.5616ZM204.203 31.6532C204.203 23.593 208.172 19.5629 216.11 19.5629C224.048 19.5629 228.017 23.593 228.017 31.6532C228.017 39.6982 224.048 43.7206 216.11 43.7206C208.203 43.7206 204.234 39.6982 204.203 31.6532ZM254.236 19.6316V43.6748H249.496L248.763 40.6065C246 42.652 243.069 43.6748 239.97 43.6748C235.055 43.6748 232.597 40.7668 232.597 34.9506V19.6316H238.665V34.7903C238.665 37.4465 239.825 38.7746 242.146 38.7746C244.115 38.7746 246.122 37.9884 248.168 36.4161V19.6316H254.236ZM259.64 15.7389H264.128L265.044 19.6316H271.089V24.4403H265.708V35.5001C265.708 37.7442 266.677 38.8662 268.616 38.8662H271.089V43.6748H265.685C261.655 43.6748 259.64 41.5148 259.64 37.1946V15.7389Z" fill="white"/>
<path d="M46.7806 8.38887C46.7567 7.97913 46.5831 7.59244 46.2929 7.30222C46.0027 7.012 45.616 6.83844 45.2062 6.81452C29.268 5.8787 16.5015 10.6771 11.0582 19.6794C9.17142 22.7589 8.24165 26.3293 8.38683 29.9379C8.50616 33.2708 9.47757 36.6373 11.2738 39.9555L7.18931 44.038C6.87504 44.3523 6.69849 44.7785 6.69849 45.2229C6.69849 45.6674 6.87504 46.0936 7.18931 46.4079C7.50358 46.7222 7.92982 46.8987 8.37426 46.8987C8.81871 46.8987 9.24495 46.7222 9.55922 46.4079L13.6417 42.3234C16.9579 44.1175 20.3264 45.089 23.6572 45.2083C23.8903 45.2167 24.1227 45.2208 24.3544 45.2208C27.7287 45.2299 31.039 44.3006 33.9157 42.5369C42.918 37.0936 47.7185 24.3292 46.7806 8.38887ZM32.1885 39.6729C27.4256 42.5578 21.7877 42.6039 16.1288 39.8341L34.684 21.281C34.8396 21.1254 34.9631 20.9407 35.0473 20.7373C35.1315 20.534 35.1748 20.3161 35.1748 20.096C35.1748 19.876 35.1315 19.6581 35.0473 19.4548C34.9631 19.2514 34.8396 19.0667 34.684 18.9111C34.5284 18.7555 34.3437 18.632 34.1403 18.5478C33.937 18.4636 33.7191 18.4203 33.4991 18.4203C33.279 18.4203 33.0611 18.4636 32.8578 18.5478C32.6544 18.632 32.4697 18.7555 32.3141 18.9111L13.761 37.4747C10.9996 31.8221 11.0394 26.1695 13.9222 21.415C18.5469 13.7798 29.5401 9.59895 43.5063 10.0972C44.0066 24.0529 39.8237 35.0482 32.1885 39.6729Z" fill="white"/>
</svg>
