<svg width="274" height="58" viewBox="0 0 274 58" fill="none" xmlns="http://www.w3.org/2000/svg">
<path d="M63.5028 10.5642H70.1687L73.96 36.0135L83.1783 10.5642H89.4973L98.1208 35.0223L102.135 10.5642H108.603L101.937 46H95.6923L85.9537 18.1965L75.4964 46H69.3261L63.5028 10.5642ZM121.008 19.9807C128.905 19.9807 132.853 24.0116 132.853 32.0735C132.853 33.1473 132.778 34.2211 132.63 35.2949H115.358C115.358 38.9624 118.051 40.7961 123.436 40.7961C126.063 40.7961 128.69 40.5483 131.316 40.0527V45.2566C129.02 45.7522 126.228 46 122.941 46C113.508 46 108.791 41.5643 108.791 32.693C108.791 24.2181 112.863 19.9807 121.008 19.9807ZM115.358 30.7354H126.46V30.5371C126.46 26.9357 124.642 25.135 121.008 25.135C117.539 25.135 115.655 27.0018 115.358 30.7354ZM141.813 10.5642V46H135.247V10.5642H141.813ZM152.062 10.5642V46H145.496V10.5642H152.062ZM155.745 44.5132V38.5659C159.297 39.8875 163.311 40.5483 167.788 40.5483C173.223 40.5483 175.941 38.7311 175.941 35.0967C175.941 32.4535 174.272 31.1318 170.935 31.1318H165.384C158.132 31.1318 154.506 27.8278 154.506 21.2197C154.506 13.9508 159.668 10.3164 169.994 10.3164C173.958 10.3164 177.717 10.8946 181.269 12.051V17.9983C177.717 16.6767 173.958 16.0159 169.994 16.0159C164.046 16.0159 161.073 17.7505 161.073 21.2197C161.073 23.863 162.51 25.1846 165.384 25.1846H170.935C178.65 25.1846 182.508 28.4886 182.508 35.0967C182.508 42.5308 177.601 46.2478 167.788 46.2478C163.311 46.2478 159.297 45.6696 155.745 44.5132ZM204.131 45.2566C201.983 45.7522 199.753 46 197.44 46C188.189 46 183.563 41.4983 183.563 32.4948C183.563 24.1521 188.189 19.9807 197.44 19.9807C199.753 19.9807 201.983 20.2285 204.131 20.7241V25.928C201.983 25.4324 199.918 25.1846 197.936 25.1846C192.732 25.1846 190.13 27.6213 190.13 32.4948C190.13 38.029 192.732 40.7961 197.936 40.7961C199.918 40.7961 201.983 40.5483 204.131 40.0527V45.2566ZM211.258 32.8912C211.258 38.3264 213.364 41.0439 217.577 41.0439C221.789 41.0439 223.896 38.3264 223.896 32.8912C223.896 27.5883 221.789 24.9368 217.577 24.9368C213.364 24.9368 211.258 27.5883 211.258 32.8912ZM204.691 32.9904C204.691 24.2677 208.986 19.9064 217.577 19.9064C226.167 19.9064 230.462 24.2677 230.462 32.9904C230.462 41.6965 226.167 46.0496 217.577 46.0496C209.019 46.0496 204.724 41.6965 204.691 32.9904ZM256.298 19.9807V46H251.169L250.376 42.6794C247.386 44.8931 244.214 46 240.86 46C235.541 46 232.881 42.8529 232.881 36.5587V19.9807H239.448V36.3853C239.448 39.2598 240.703 40.697 243.214 40.697C245.345 40.697 247.518 39.8462 249.731 38.1447V19.9807H256.298ZM259.609 15.7681H264.466L265.457 19.9807H271.999V25.1846H266.176V37.1534C266.176 39.5819 267.225 40.7961 269.323 40.7961H271.999V46H266.151C261.79 46 259.609 43.6624 259.609 38.9872V15.7681Z" fill="#095256"/>
<path d="M51.3513 9.07835C51.3254 8.63493 51.1373 8.21646 50.8228 7.90238C50.5083 7.58831 50.0893 7.40049 49.6453 7.3746C32.3733 6.36186 18.5385 11.5547 12.6398 21.2969C10.5951 24.6294 9.58758 28.4933 9.7449 32.3984C9.87422 36.0053 10.9269 39.6484 12.8735 43.2394L8.44718 47.6574C8.10661 47.9975 7.91528 48.4588 7.91528 48.9398C7.91528 49.4207 8.10661 49.882 8.44718 50.2221C8.78774 50.5622 9.24965 50.7533 9.73129 50.7533C10.2129 50.7533 10.6748 50.5622 11.0154 50.2221L15.4394 45.8019C19.0331 47.7435 22.6835 48.7948 26.2931 48.9239C26.5457 48.933 26.7975 48.9375 27.0486 48.9375C30.7052 48.9473 34.2926 47.9416 37.4099 46.033C47.1655 40.1423 52.3677 26.3288 51.3513 9.07835ZM35.5382 42.9336C30.3768 46.0556 24.2671 46.1055 18.1347 43.108L38.2426 23.0301C38.4112 22.8617 38.545 22.6617 38.6362 22.4417C38.7275 22.2217 38.7745 21.9859 38.7745 21.7477C38.7745 21.5096 38.7275 21.2737 38.6362 21.0537C38.545 20.8337 38.4112 20.6338 38.2426 20.4654C38.0739 20.297 37.8737 20.1634 37.6534 20.0723C37.4331 19.9811 37.1969 19.9342 36.9584 19.9342C36.72 19.9342 36.4838 19.9811 36.2635 20.0723C36.0432 20.1634 35.843 20.297 35.6743 20.4654L15.5688 40.5547C12.5763 34.4375 12.6194 28.3203 15.7435 23.1751C20.7551 14.9123 32.6683 10.3879 47.803 10.9271C48.3453 26.0298 43.8123 37.9288 35.5382 42.9336Z" fill="#095256"/>
</svg>
